<?xml version="1.0" encoding="UTF-8"?>
<svg id="uuid-440965ef-a1b2-4116-a7a6-b8e484631877" data-name="Vrstva 1" xmlns="http://www.w3.org/2000/svg" viewBox="0 0 512 512">
  <rect y="0" width="512" height="512" style="fill: none;"/>
  <g>
    <path d="m333.77,405.83c21.51-16.36,39.19-38.85,52.42-67.94,5.63-12.39,9.47-24.36,12.31-36.12,2.49-10.29,5.06-20.62,6.11-30.17,1.43-13.07,1.69-25.26,1.07-36.8-1.12-20.85-4.38-39.64-9.44-56.7-4.85-16.35-12.01-29.97-20.11-42.42-7.04-10.81-15.1-20.2-24.46-27.8-15.39-12.5-32.8-21.57-52.26-27.17-10.1-2.91-21.2-3.8-33.06-3.01-7.65.51-15.58,1.87-24.56,6.38-8.83,3.31-17.95,9.41-27.31,18.09-1.7,1.57-3.36,2.58-5.02,3.61-2.02,1.25-4.01,2.31-6.04,3.66-21.17,14.09-41.26,32.95-59.56,60.14-7.58,11.27-14.22,22.92-19.39,34.96-8.14,18.95-13.41,37.06-16.05,54.21-3.65,23.68-2.9,43.88.63,61.82,4.13,20.96,12.26,37.26,22.17,51.49,7.78,11.17,16.86,20.5,26.61,28.85,11.74,10.05,24.25,18.92,38.73,24.58,8.65,3.38,17.37,6.65,27.15,7.86,15.13,1.88,31.16,1.7,48.41-1.34,10.61-1.88,21.61-4.98,33.06-9.57,9.23-3.7,18.8-9.16,28.6-16.61m-30.17-12.82c-10.4,3.66-20,5.12-29.2,5.47-8.56.33-16.63-.42-24.28-2.05-15.65-3.33-29.44-9.93-42.5-17.86-12.03-7.31-23.35-15.71-33.69-25.64-6.87-6.6-13.52-13.51-19.31-21.62-6.81-9.56-12.79-20.15-16.38-33.58-3.29-12.27-5.11-25.86-3.65-42.32.4-4.44.8-8.9,1.54-13.54.52-3.3,1.61-6.93,2.44-10.42,1.98-9.96,5.65-20.35,10.59-31.01,5.42-11.68,12.28-22.55,20.2-32.53,8.59-10.82,17.62-20.27,27.05-27.84,1.14-.91,2.79-2.94,3.32-1.97.58,1.09-1.22,2.89-2.08,4.34-7.01,11.69-12.38,23.47-15.84,35.23-.86,2.92-1.29,5.79-1.15,8.22.32,5.6,6,4.31,10.55-2.41,2.66-3.91,4.49-8.01,6.26-12.12,1.71-3.96,3.49-7.9,5.55-11.84,7.69-14.73,17-25.4,27.98-32.63,8.81-5.8,16.95-9.08,24.91-11.2,8.22-2.19,16.01-3.3,23.15-2.84,8.36.54,15.96,2.62,23.19,5.37,9.25,3.52,17.75,8.29,25.63,14.09,7.3,5.38,14.1,11.5,20.39,18.38,8.45,9.23,15.37,20.41,21.43,32.73,7.01,14.27,12.73,29.91,15.2,49.08,1.68,13.01,1.83,27.22-.3,43.16-1.39,10.38-4.22,21.45-8.04,32.95-3.35,10.11-7.66,20.15-13.19,30.18-10.62,19.24-23.24,33.94-37.83,43.87-7.72,5.25-14.85,7.84-21.95,10.35" style="fill: #d84720;"/>
    <path d="m345.86,215.67c-2.16,0-4.09.47-5.75,1.42-4.08,2.6-7.91,6.15-12.71,11.59l-5.27,5.68-.96.95c-24.21,23.89-36.19,34.06-36.19,30.04,0-4.5,1.67-10.41,4.79-17.98,1.43-3.55,3.59-8.52,6.47-14.43.48-.95.72-1.66.72-2.37,0-1.18-1.44-3.07-4.56-5.44-4.08-3.08-7.19-4.26-8.87-3.78-4.56.94-9.11,12.06-14.15,33.12-.96,3.78-1.43,7.33-1.43,10.88,0,1.49.09,2.92.25,4.28-3.61,1.86-6.2,2.32-7.67,1.47-1.5-.9-1.07-4.05-1.07-8.33l.85-10.15c.86-6.09,1.08-12.4-1.5-14.21-4.07-2.94-7.28-4.06-9.63-3.38-2.36.67-6,3.38-10.93,7.66-5.78,6.08-10.92,12.85-15.21,19.84.64-2.93,1.5-6.77,3-11.95,1.5-5.18,2.78-9.69,3.64-13.3,1.07-3.61,1.29-5.86.86-6.99-2.36-6.31-8.14-11.5-13.5-10.37-6.21,1.14-15.94,12.65-24.85,26.15-6.82,10.35-11.31,16.94-11.31,16.94-.47-2.66-1.28-13.8,3.25-34.59,2.08-9.58,6.24-25.41.25-28.79-5.79-3.61-10.73,27.27-13.78,40.29-3.13,13.36-4.18,18.82-4.82,22.43-3,13.3-2.71,19.34-1.64,21.37,3.43,7.89,10.71,9.69,15.64,5.41,3-2.03,7.5-9.92,9.64-12.85l11.57-18.26c7.49-11.5,12.85-18.94,16.06-22.55-.21,2.48-1.93,9.02-4.71,19.16-2.79,10.14-4.28,15.55-4.28,16.01-.86,9.25,2.14,13.98,8.78,14.66,3.64,0,6.21-1.58,7.92-5.19l6.64-8.79c2.36-3.16,10.93-13.98,15.43-20.29-.64,13.75,1.28,23.21,5.57,27.95,1.93,2.03,4.5,3.16,8.14,3.61,3.64.22,6.43-.45,8.35-2.48l1.66-2.4c2.49,4.97,6.67,7.98,12.27,7.98,3.59,0,9.34-3.31,17.26-9.93,15.34-12.78,26.85-24.13,34.28-33.83-.47,4.97-2.63,13.48-6.24,25.08-3.59,11.59-5.99,19.4-7.67,23.18-6,15.38-10.31,26.02-13.19,31.94-7.43,15.38-12.71,25.79-15.82,31.23-5.52,8.75-9.11,13.48-11.27,13.95-1.91.24-3.59-.23-4.55-1.18l-3.84-4.5c-2.16-2.84-3.59-4.26-4.07-4.26-.72,0-1.68,1.18-2.88,3.31-.24,1.18-.48,2.6-.48,4.02,0,.94.24,2.6.24,2.84,1.68,9.46,10.54,17.27,19.9,16.32,6.95,0,15.58-9.93,25.89-30.04,10.55-20.1,19.66-40.93,27.09-62.69,7.67-21.53,12.22-37.38,13.9-47.08.96-6.39,5.51-15.14,5.51-18.69.24-5.91-5.04-9.7-11.02-9.7Z" style="fill: #d84720; fill-rule: evenodd;"/>
  </g>
</svg>
