<svg version="1.2" xmlns="http://www.w3.org/2000/svg" viewBox="197 13 43 68" width="43" height="68">
	<path fill-rule="evenodd" fill="#d53827" d="m234.14 49.79q-4.29 4.26-9.98 5.4l-0.23-0.4-5.09-8.81q0.48 0.04 0.98 0.04 4.42 0 7.39-2.97 2.97-2.97 2.97-7.54 0-4.57-2.97-7.54-2.97-2.97-7.39-2.97-4.41 0-7.34 2.97-2.94 2.97-2.94 7.54c0 3.73 2.48 7.53 4.36 10.69l5.11 8.85 6.6 11.42-5.28 10.11-6.6-11.42-7.87-13.65c-3.25-5.63-6.14-8.93-6.14-16q0-8.44 5.83-14.28 5.82-5.82 14.27-5.82 8.46 0 14.32 5.82 5.86 5.83 5.86 14.28 0 8.45-5.86 14.28z"/>
</svg>
