<?xml version="1.0" encoding="UTF-8"?>
<svg id="uuid-e16e3457-bf37-47e0-b4f1-8b012a0cc74f" data-name="Vrstva 1" xmlns="http://www.w3.org/2000/svg" viewBox="90 140 340 245">
  <g>
    <path d="m215.6,339.91c12.05-9.16,21.94-21.75,29.35-38.05,3.15-6.94,5.3-13.64,6.9-20.23,1.39-5.76,2.84-11.55,3.42-16.89.8-7.32.95-14.15.6-20.61-.63-11.68-2.45-22.2-5.29-31.75-2.72-9.16-6.72-16.78-11.26-23.75-3.94-6.05-8.46-11.31-13.7-15.57-8.62-7-18.37-12.08-29.27-15.22-5.66-1.63-11.87-2.13-18.52-1.68-4.28.29-8.73,1.05-13.75,3.57-4.94,1.85-10.05,5.27-15.3,10.13-.95.88-1.88,1.44-2.81,2.02-1.13.7-2.25,1.29-3.38,2.05-11.85,7.89-23.11,18.45-33.35,33.68-4.25,6.31-7.96,12.84-10.86,19.58-4.56,10.61-7.51,20.75-8.99,30.36-2.04,13.26-1.62,24.57.35,34.62,2.31,11.74,6.87,20.87,12.42,28.84,4.36,6.26,9.44,11.48,14.9,16.15,6.57,5.63,13.58,10.59,21.69,13.76,4.84,1.89,9.73,3.72,15.21,4.4,8.47,1.05,17.45.95,27.11-.75,5.94-1.05,12.1-2.79,18.51-5.36,5.17-2.07,10.53-5.13,16.02-9.3m-16.9-7.18c-5.82,2.05-11.2,2.87-16.35,3.06-4.79.18-9.31-.24-13.6-1.15-8.77-1.86-16.49-5.56-23.8-10-6.74-4.09-13.07-8.8-18.87-14.36-3.85-3.69-7.57-7.56-10.81-12.11-3.81-5.35-7.16-11.29-9.17-18.8-1.84-6.87-2.86-14.48-2.04-23.7.22-2.48.45-4.98.86-7.58.29-1.85.9-3.88,1.37-5.83,1.11-5.58,3.16-11.4,5.93-17.37,3.03-6.54,6.88-12.63,11.31-18.22,4.81-6.06,9.87-11.35,15.15-15.59.64-.51,1.56-1.64,1.86-1.1.33.61-.68,1.62-1.17,2.43-3.93,6.55-6.93,13.14-8.87,19.73-.48,1.64-.72,3.24-.65,4.6.18,3.14,3.36,2.41,5.91-1.35,1.49-2.19,2.52-4.49,3.51-6.79.96-2.22,1.95-4.42,3.11-6.63,4.31-8.25,9.52-14.23,15.67-18.27,4.93-3.25,9.49-5.09,13.95-6.27,4.6-1.23,8.97-1.85,12.97-1.59,4.68.3,8.94,1.46,12.99,3.01,5.18,1.97,9.94,4.64,14.35,7.89,4.09,3.01,7.89,6.44,11.42,10.29,4.73,5.17,8.61,11.43,12,18.33,3.93,7.99,7.13,16.75,8.51,27.48.94,7.29,1.03,15.25-.17,24.17-.78,5.81-2.36,12.01-4.5,18.45-1.88,5.66-4.29,11.29-7.39,16.9-5.95,10.77-13.01,19.01-21.19,24.56-4.32,2.94-8.32,4.39-12.29,5.79" style="fill: #d84720;"/>
    <path d="m222.36,233.41c-1.21,0-2.29.26-3.22.79-2.29,1.46-4.43,3.45-7.12,6.49l-2.95,3.18-.54.53c-13.56,13.38-20.27,19.07-20.27,16.82,0-2.52.93-5.83,2.68-10.07.8-1.99,2.01-4.77,3.62-8.08.27-.53.41-.93.41-1.32,0-.66-.81-1.72-2.55-3.05-2.29-1.72-4.03-2.39-4.97-2.12-2.55.53-5.1,6.76-7.92,18.55-.54,2.12-.8,4.11-.8,6.09,0,.83.05,1.63.14,2.4-2.02,1.04-3.47,1.3-4.3.82-.84-.51-.6-2.27-.6-4.67l.48-5.68c.48-3.41.6-6.95-.84-7.96-2.28-1.64-4.08-2.27-5.39-1.89-1.32.38-3.36,1.89-6.12,4.29-3.24,3.41-6.12,7.19-8.52,11.11.36-1.64.84-3.79,1.68-6.69.84-2.9,1.56-5.43,2.04-7.45.6-2.02.72-3.28.48-3.91-1.32-3.54-4.56-6.44-7.56-5.81-3.48.64-8.93,7.08-13.92,14.65-3.82,5.79-6.33,9.49-6.33,9.49-.26-1.49-.71-7.73,1.82-19.37,1.17-5.36,3.5-14.23.14-16.12-3.24-2.02-6.01,15.27-7.72,22.56-1.75,7.48-2.34,10.54-2.7,12.56-1.68,7.45-1.52,10.83-.92,11.97,1.92,4.42,6,5.43,8.76,3.03,1.68-1.14,4.2-5.56,5.4-7.2l6.48-10.23c4.19-6.44,7.19-10.61,8.99-12.63-.12,1.39-1.08,5.05-2.64,10.73-1.56,5.68-2.4,8.71-2.4,8.96-.48,5.18,1.2,7.83,4.92,8.21,2.04,0,3.48-.88,4.43-2.91l3.72-4.92c1.32-1.77,6.12-7.83,8.64-11.36-.36,7.7.72,13,3.12,15.65,1.08,1.14,2.52,1.77,4.56,2.02,2.04.12,3.6-.25,4.68-1.39l.93-1.35c1.39,2.78,3.74,4.47,6.87,4.47,2.01,0,5.23-1.86,9.66-5.56,8.59-7.15,15.04-13.51,19.2-18.94-.27,2.78-1.48,7.55-3.49,14.04-2.01,6.49-3.35,10.86-4.29,12.98-3.36,8.61-5.77,14.57-7.38,17.88-4.16,8.61-7.12,14.44-8.86,17.49-3.09,4.9-5.1,7.55-6.31,7.81-1.07.13-2.01-.13-2.55-.66l-2.15-2.52c-1.21-1.59-2.01-2.38-2.28-2.38-.4,0-.94.66-1.61,1.85-.13.66-.27,1.46-.27,2.25,0,.53.13,1.46.13,1.59.94,5.3,5.9,9.67,11.14,9.14,3.89,0,8.73-5.56,14.5-16.82,5.91-11.26,11.01-22.92,15.17-35.1,4.3-12.06,6.84-20.93,7.79-26.36.54-3.58,3.09-8.48,3.09-10.47.13-3.31-2.82-5.43-6.17-5.43Z" style="fill: #d84720; fill-rule: evenodd;"/>
  </g>
  <g>
    <path d="m293.12,277.54h-22.34c-.37,0-.66-.29-.66-.66l.37-24.89-.37-24.89c0-.37.29-.66.66-.66h21.97c10.44,0,18.18,3.8,18.18,12.63,0,6.21-3.28,9.71-8.76,11.31,6.79,1.61,10.15,6.06,10.15,11.68,0,11.1-9.42,15.48-19.2,15.48Zm-11.97-30.51h11.75c4.31,0,6.93-2.19,6.93-6.35,0-4.53-3.14-6.5-6.93-6.5h-11.46l-.29,12.85Zm.29,22.78h11.46c4.6,0,8.18-1.75,8.18-7.74,0-5.4-3.72-7.3-8.18-7.3h-11.75l.29,15.04Z" style="fill: #d84720;"/>
    <path d="m339.69,266.15l-5.04-7.59h-7.3l.22,18.32c0,.37-.29.66-.66.66h-10c-.37,0-.66-.29-.66-.66l.29-24.89-.29-24.89c0-.37.29-.66.66-.66h20.73c12.77,0,20.15,5.4,20.15,16.06,0,7.52-4.16,12.7-11.39,14.89l12.7,19.56c.15.29,0,.58-.29.58h-11.61c-.37,0-.8-.22-1.02-.58l-6.5-10.8Zm-1.61-31.61h-10.58l-.22,15.91h11.1c4.67,0,8.69-2.19,8.69-7.74s-3.28-8.18-8.98-8.18Z" style="fill: #d84720;"/>
    <path d="m363.27,277.54c-.36,0-.66-.29-.66-.66l.37-24.89-.37-24.89c0-.37.29-.66.66-.66h9.93c.37,0,.66.29.66.66l-.36,24.89.36,24.89c0,.37-.29.66-.66.66h-9.93Z" style="fill: #d84720;"/>
    <path d="m402.98,268.27l-8.18-12.34-4.23,5.26.15,15.69c0,.37-.29.66-.66.66h-10c-.37,0-.66-.29-.66-.66l.37-24.89-.29-24.89c0-.37.29-.66.66-.66h9.93c.37,0,.66.29.66.66l-.22,20.66,14.96-20.8c.22-.29.66-.51,1.02-.51h11.83c.29,0,.44.29.22.51l-16.57,20.29,20.58,29.78c.15.22,0,.51-.29.51h-12.41c-.37,0-.8-.22-1.02-.51l-5.84-8.76Z" style="fill: #d84720;"/>
  </g>
</svg>
